<?xml version="1.0" standalone="no"?><!-- Generator: Gravit.io --><svg xmlns="http://www.w3.org/2000/svg" xmlns:xlink="http://www.w3.org/1999/xlink" style="isolation:isolate" viewBox="0 0 300 100" width="300" height="100"><defs><clipPath id="_clipPath_l3dL5NhfvHUZifUhwgHwmoEVMhwXDOsn"><rect width="300" height="100"/></clipPath></defs><g clip-path="url(#_clipPath_l3dL5NhfvHUZifUhwgHwmoEVMhwXDOsn)"><g><g><g/><g/><g/><g/></g><g/></g><g/><g/><g/><g/><g><g/><g/></g><g><g/><g/></g><g/><g><g><g><path d=" M 294.877 30.48 Q 290.898 24.762 286.652 26.057 L 285.431 29.265 L 284.895 26.432 Q 278.635 25.026 274.926 29.299 L 275.371 33.666 L 273.097 30.1 Q 270.479 30.011 268.542 32.997 L 269.776 36.704 L 267.125 34.364 Q 265.219 34.371 263.09 37.192 L 263.823 39.859 L 262.156 38.701 Q 259.706 49.33 260.498 52.482 L 260.512 57.392 Q 269.835 55.457 271.987 53.629 L 271.182 51.386 L 273.44 52.05 Q 278.474 49.629 279.735 47.88 Q 275.641 46.414 273.928 46.173 Q 276.666 44.869 281.547 46.183 Q 285.623 43.838 287.395 39.652 Q 284.317 37.613 283.059 37.263 Q 284.317 36.598 288.042 37.836 Q 290.224 35.165 291.952 34.749 Q 293.679 34.333 294.877 30.48 Z " fill="rgb(255,255,255)" vector-effect="non-scaling-stroke" stroke-width="1" stroke="rgb(0,0,0)" stroke-linejoin="miter" stroke-linecap="square" stroke-miterlimit="3"/><path d=" M 293.909 30.196 Q 280.704 30.553 274.867 36.639 Q 269.03 42.726 260.835 57.486 Q 270.663 41.644 274.615 38.126 Q 278.567 34.608 285.249 32.333 L 293.837 30.621 L 294.877 30.48 L 293.909 30.196 Z " fill="rgb(255,255,255)" vector-effect="non-scaling-stroke" stroke-width="1" stroke="rgb(0,0,0)" stroke-linejoin="miter" stroke-linecap="square" stroke-miterlimit="3"/><path d=" M 217 24.917 Q 221.52 19.945 225.598 21.97 L 226.485 25.364 L 227.302 22.65 Q 233.648 22.35 236.893 27.234 L 236.011 31.485 L 238.625 28.347 Q 241.229 28.716 242.848 32.015 L 241.25 35.473 L 244.114 33.618 Q 246.003 33.958 247.829 37.126 L 246.833 39.642 L 248.601 38.785 Q 249.959 49.748 248.856 52.734 L 248.347 57.597 Q 239.301 54.05 237.352 51.862 L 238.377 49.78 L 236.072 50.043 Q 231.327 46.763 230.253 44.809 Q 234.458 44.072 236.18 44.133 Q 233.598 42.362 228.628 42.811 Q 224.824 39.774 223.49 35.315 Q 226.746 33.832 228.029 33.706 Q 226.849 32.826 223.033 33.402 Q 221.139 30.373 219.469 29.659 Q 217.799 28.944 217 24.917 Z " fill="rgb(255,255,255)" vector-effect="non-scaling-stroke" stroke-width="1" stroke="rgb(0,0,0)" stroke-linejoin="miter" stroke-linecap="square" stroke-miterlimit="3"/><path d=" M 217.988 24.804 Q 231.04 27.466 236.211 34.519 Q 241.383 41.573 248.017 57.635 Q 239.873 40.215 236.311 36.037 Q 232.749 31.859 226.355 28.436 L 218.016 25.238 L 217 24.917 L 217.988 24.804 Z " fill="rgb(255,255,255)" vector-effect="non-scaling-stroke" stroke-width="1" stroke="rgb(0,0,0)" stroke-linejoin="miter" stroke-linecap="square" stroke-miterlimit="3"/><path d=" M 294.877 66.204 Q 293.517 60.657 290.326 59.479 L 288.742 60.957 L 289.044 58.888 Q 285.12 55.026 281.595 56.01 L 280.871 59.019 L 280.164 55.657 Q 278.405 54.362 276.387 55.359 L 276.354 58.319 L 275.103 55.565 Q 273.805 54.668 271.695 55.468 L 271.567 57.524 L 270.706 55.994 Q 266.542 61.645 266.34 64.04 L 265.195 67.192 Q 271.986 70.363 273.879 70.21 L 273.859 68.391 L 275.238 69.885 Q 279.228 70.715 280.496 70.191 Q 278.058 67.315 276.951 66.35 Q 279.118 66.81 282.126 69.96 Q 285.448 70.386 287.636 68.542 Q 286.024 65.779 285.25 64.96 Q 286.262 65.129 288.502 67.684 Q 290.614 67.005 291.885 67.555 Q 293.157 68.106 294.877 66.204 Z " fill="rgb(255,255,255)" vector-effect="non-scaling-stroke" stroke-width="1" stroke="rgb(0,0,0)" stroke-linejoin="miter" stroke-linecap="square" stroke-miterlimit="3"/><path d=" M 294.286 65.564 Q 285.227 59.546 279.83 60.685 Q 274.432 61.825 265.392 67.406 Q 275.796 61.904 279.309 61.519 Q 282.822 61.134 287.898 62.837 L 294.137 65.802 L 294.877 66.204 L 294.286 65.564 Z " fill="rgb(255,255,255)" vector-effect="non-scaling-stroke" stroke-width="1" stroke="rgb(0,0,0)" stroke-linejoin="miter" stroke-linecap="square" stroke-miterlimit="3"/><path d=" M 252.371 54.925 Q 245.91 44.948 245.761 41.217 L 250.553 41.652 Q 248.589 40.165 245.761 39.694 Q 244.913 32.961 243.943 32.513 L 249.562 31.643 Q 244.761 30.255 243.447 30.555 Q 242.202 27.308 243.447 24.897 Q 243.329 22.952 242.951 21.851 Q 248.009 22.268 247.909 21.851 Q 246.167 20.035 242.951 19.892 Q 242.674 16.684 243.943 12.059 L 247.909 12.494 Q 247.511 11.546 243.943 10.753 Q 244.31 9.725 243.282 3.79 Q 245.623 2.108 250.553 4.008 Q 255.484 5.908 257.329 8.36 Q 254.837 12.08 255.181 12.494 Q 255.932 12.619 258.486 9.448 Q 260.771 10.56 263.444 16.628 Q 259.649 19.13 258.486 20.545 Q 259.234 20.964 263.775 18.804 Q 265.918 21.859 265.758 24.462 C 265.597 27.065 264.967 28.044 265.262 30.555 Q 260.401 30.75 258.982 32.513 L 265.262 32.513 Q 265.982 36.982 264.271 40.129 L 261.626 39.694 Q 262.378 43.008 262.948 42.958 Q 258.487 52.797 253.528 54.273 L 252.371 54.925 Z " fill="rgb(255,255,255)" vector-effect="non-scaling-stroke" stroke-width="1" stroke="rgb(0,0,0)" stroke-linejoin="miter" stroke-linecap="square" stroke-miterlimit="3"/><path d=" M 243.29 4.01 Q 248.886 9.235 250.464 17.435 C 252.042 25.635 252.388 25.112 252.868 30.5 C 253.348 35.888 253.262 51.883 252.176 53.893 L 253.074 53.837 Q 256.07 40.367 252.388 17.314 Q 251.56 11.4 244.436 3.717 L 243.29 4.01 Z " fill="rgb(255,255,255)" vector-effect="non-scaling-stroke" stroke-width="1" stroke="rgb(0,0,0)" stroke-linejoin="miter" stroke-linecap="square" stroke-miterlimit="3"/><path d=" M 258.651 71.492 Q 250.29 73.61 247.544 72.68 L 248.667 69.16 Q 247.252 70.237 246.433 72.254 Q 241.381 71.015 240.891 71.627 L 241.201 67.114 Q 239.382 70.374 239.38 71.456 Q 236.803 71.493 235.255 69.873 Q 233.816 69.419 232.95 69.398 Q 234.104 65.672 233.783 65.631 Q 232.167 66.446 231.522 68.85 Q 229.136 68.163 225.976 65.906 L 226.961 63.014 Q 226.203 63.051 225.024 65.541 Q 224.336 64.974 219.836 64.095 Q 219.003 61.846 221.217 58.631 Q 223.431 55.416 225.53 54.7 Q 227.824 57.634 228.183 57.489 Q 228.401 56.953 226.517 54.125 Q 227.713 52.7 232.587 52.367 Q 233.773 55.95 234.61 57.229 Q 235.041 56.779 234.229 52.724 Q 236.817 51.95 238.688 52.8 C 240.559 53.65 241.167 54.403 243.048 54.881 Q 242.373 58.629 243.42 60.2 L 244.476 55.429 Q 247.856 56.132 249.862 58.312 L 249.1 60.199 Q 251.644 60.556 251.703 60.108 Q 258.127 66.249 258.37 70.43 L 258.651 71.492 Z " fill="rgb(255,255,255)" vector-effect="non-scaling-stroke" stroke-width="1" stroke="rgb(0,0,0)" stroke-linejoin="miter" stroke-linecap="square" stroke-miterlimit="3"/><path d=" M 219.997 64.151 Q 224.749 61.36 230.993 62.455 C 237.237 63.549 236.915 63.14 240.924 64.283 C 244.934 65.425 256.583 69.964 257.866 71.351 L 257.976 70.653 Q 248.657 64.609 231.228 60.959 Q 226.777 59.934 219.977 63.198 L 219.997 64.151 Z " fill="rgb(255,255,255)" vector-effect="non-scaling-stroke" stroke-width="1" stroke="rgb(0,0,0)" stroke-linejoin="miter" stroke-linecap="square" stroke-miterlimit="3"/><path d=" M 241.789 35.056 Q 244.863 31.598 250.932 31.657 C 257 31.715 261.918 30.527 266.435 31.657 Q 270.952 32.787 272.515 35.056 L 272.515 42.454 L 271.119 43.654 L 271.462 46.99 L 271.119 47.653 Q 271.559 63.505 269.779 64.155 Q 272.476 80.391 269.779 82.446 L 271.119 82.446 Q 271.87 87.159 271.462 88.844 C 271.054 90.529 268.559 91.285 264.307 91.644 C 260.055 92.003 249.896 92.222 246.676 91.644 Q 243.456 91.065 241.789 89.644 L 241.789 85.245 L 243.028 82.446 Q 240.936 74.623 241.789 69.848 Q 242.641 65.074 241.789 55.851 Q 241.989 50.06 243.028 47.653 L 241.789 45.853 L 241.789 42.454 L 241.789 35.056 Z " fill="rgb(255,255,255)" vector-effect="non-scaling-stroke" stroke-width="1" stroke="rgb(0,0,0)" stroke-linejoin="miter" stroke-linecap="square" stroke-miterlimit="3"/><path d=" M 242.502 35.558 Q 245.422 32.176 251.185 32.233 C 256.948 32.29 261.618 31.127 265.908 32.233 Q 270.197 33.338 271.682 35.558 L 271.682 42.795 L 270.356 43.969 L 270.681 47.232 L 270.356 47.881 Q 270.774 63.387 269.083 64.024 Q 271.645 79.906 269.083 81.916 L 270.356 81.916 Q 271.069 86.527 270.681 88.176 C 270.294 89.824 267.925 90.563 263.887 90.914 C 259.849 91.265 250.201 91.48 247.143 90.914 Q 244.085 90.348 242.502 88.958 L 242.502 84.655 L 243.679 81.916 Q 241.692 74.263 242.502 69.593 Q 243.311 64.923 242.502 55.901 Q 242.692 50.236 243.679 47.881 L 242.502 46.121 L 242.502 42.795 L 242.502 35.558 Z " fill="rgb(255,255,255)" vector-effect="non-scaling-stroke" stroke-width="1" stroke="rgb(0,0,0)" stroke-linejoin="miter" stroke-linecap="square" stroke-miterlimit="3"/><path d=" M 245.65 41.413 Q 247.193 42.368 254.144 47.22 Q 252.875 51.279 247.894 50.756 C 242.912 50.232 244.107 40.459 245.65 41.413 Z " fill="none" vector-effect="non-scaling-stroke" stroke-width="1" stroke="rgb(0,0,0)" stroke-linejoin="miter" stroke-linecap="square" stroke-miterlimit="3"/><path d=" M 246.004 43.955 Q 247.394 44.652 253.658 48.192 Q 252.515 51.154 248.026 50.772 C 243.536 50.39 244.613 43.258 246.004 43.955 Z " fill="none" vector-effect="non-scaling-stroke" stroke-width="1" stroke="rgb(0,0,0)" stroke-linejoin="miter" stroke-linecap="square" stroke-miterlimit="3"/><path d=" M 266.912 41.413 Q 265.369 42.368 258.418 47.22 Q 259.686 51.279 264.668 50.756 C 269.649 50.232 268.454 40.459 266.912 41.413 Z " fill="none" vector-effect="non-scaling-stroke" stroke-width="1" stroke="rgb(0,0,0)" stroke-linejoin="miter" stroke-linecap="square" stroke-miterlimit="3"/><path d=" M 266.558 43.955 Q 265.168 44.652 258.904 48.192 Q 260.047 51.154 264.536 50.772 C 269.025 50.39 267.948 43.258 266.558 43.955 Z " fill="none" vector-effect="non-scaling-stroke" stroke-width="1" stroke="rgb(0,0,0)" stroke-linejoin="miter" stroke-linecap="square" stroke-miterlimit="3"/><path d=" M 256.013 44.215 Q 254.613 49.608 254.751 53.084 Q 253.672 51.769 253.011 53.084 Q 252.35 54.399 253.011 59.908 Q 253.917 61.423 255.21 61.062 Q 256.642 63.584 257.495 61.062 Q 259.569 60.724 259.843 58.912 Q 260.118 57.101 259.843 53.084 Q 259.74 51.769 258.121 53.084 Q 257.668 44.83 256.932 44.215 Q 256.195 43.6 256.013 44.215 Z " fill="none" vector-effect="non-scaling-stroke" stroke-width="1" stroke="rgb(0,0,0)" stroke-linejoin="miter" stroke-linecap="square" stroke-miterlimit="3"/><path d=" M 255.325 57.983 Q 255.105 55.501 254.406 56.37 C 253.707 57.24 254.63 59.795 254.98 58.893 Q 255.33 57.991 255.325 57.983 Z " fill="none" vector-effect="non-scaling-stroke" stroke-width="1" stroke="rgb(0,0,0)" stroke-linejoin="miter" stroke-linecap="square" stroke-miterlimit="3"/><path d=" M 257.496 57.671 Q 257.715 55.189 258.414 56.058 C 258.484 56.146 258.539 56.251 258.578 56.368 C 258.932 57.409 258.154 59.392 257.84 58.581 Q 257.49 57.68 257.496 57.671 Z " fill="none" vector-effect="non-scaling-stroke" stroke-width="1" stroke="rgb(0,0,0)" stroke-linejoin="miter" stroke-linecap="square" stroke-miterlimit="3"/><path d=" M 249.226 79.507 Q 248.142 78.751 248.115 75.986 Q 248.089 73.221 246.865 68.749 L 248.115 70.705 Q 247.936 69.026 248.532 67.184 Q 249.128 65.342 249.226 65.424 Q 248.874 69.244 250.06 71.683 Q 250.628 71.34 250.338 70.705 C 250.047 70.07 249.16 65.78 249.643 65.786 Q 249.909 64.594 250.338 63.983 Q 250.017 66.944 251.171 67.184 Q 252.168 65.857 251.727 64.446 Q 251.286 63.035 251.171 63.076 L 252.261 64.446 Q 252.913 66.043 252.699 67.184 Q 252.484 68.325 253.393 70.314 L 253.949 67.184 Q 253.982 65.795 253.393 64.837 Q 252.804 63.879 255.616 67.184 Q 256.109 68.864 255.616 70.705 Q 257.368 69.026 257.004 67.184 Q 256.64 65.342 257.687 65.424 L 257.687 65.424 Q 257.134 65.481 257.687 67.184 Q 258.239 68.888 258.254 70.705 Q 259.851 68.182 259.505 67.184 Q 259.158 66.186 258.997 65.424 L 259.505 64.446 Q 259.286 65.604 259.921 66.402 C 260.557 67.199 260.559 65.069 260.338 64.446 C 260.117 63.823 261.228 65.435 261.032 66.402 C 260.836 67.368 259.565 68.09 259.921 69.727 Q 260.277 71.364 260.338 70.705 L 261.727 67.967 Q 262.617 66.62 261.727 63.983 L 263.335 67.184 Q 264.196 68.727 263.335 72.465 L 265.011 68.749 Q 263.341 76.481 264.227 77.356 Q 265.112 78.23 263.335 79.507 L 249.226 79.507 Z " fill="rgb(255,255,255)" vector-effect="non-scaling-stroke" stroke-width="1" stroke="rgb(0,0,0)" stroke-linejoin="miter" stroke-linecap="square" stroke-miterlimit="3"/><path d=" M 247.65 84.202 Q 250.537 73.463 255.978 76.307 Q 261.606 73.987 263.035 78.425 Q 264.464 82.863 265.011 84.202 L 265.011 84.202 L 265.011 84.202" fill="rgb(255,255,255)" vector-effect="non-scaling-stroke" stroke-width="1" stroke="rgb(0,0,0)" stroke-linejoin="miter" stroke-linecap="square" stroke-miterlimit="3"/><path d=" M 262.707 62.685 Q 259.998 62.436 256.05 65.786 Q 249.653 61.832 248.486 62.392 C 247.32 62.952 244.967 68.081 244.641 70.086 C 244.314 72.091 243.148 81.017 246.179 83.725 C 249.21 86.433 251.152 82.94 253.102 81.831 C 255.051 80.721 257.957 80.274 259.768 81.831 C 261.579 83.387 264.34 85.078 265.665 83.725 C 266.99 82.371 268.217 82.08 268.333 78.989 C 268.45 75.898 268.806 69.159 265.665 63.835 C 264.848 62.45 263.862 62.792 262.707 62.685 Z " fill="none" vector-effect="non-scaling-stroke" stroke-width="1" stroke="rgb(0,0,0)" stroke-linejoin="miter" stroke-linecap="square" stroke-miterlimit="3"/><path d=" M 263.335 60.386 Q 260.384 60.096 256.083 63.983 Q 249.113 59.396 247.843 60.046 C 246.573 60.695 244.009 66.645 243.653 68.971 C 243.298 71.297 242.027 81.653 245.329 84.795 C 248.631 87.936 250.747 83.884 252.871 82.597 C 254.995 81.31 258.161 80.792 260.133 82.597 C 262.106 84.402 265.114 86.365 266.558 84.795 C 268.001 83.224 269.338 82.886 269.465 79.3 C 269.592 75.715 269.98 67.896 266.558 61.719 C 265.668 60.112 264.594 60.509 263.335 60.386 Z " fill="none" vector-effect="non-scaling-stroke" stroke-width="1" stroke="rgb(0,0,0)" stroke-linejoin="miter" stroke-linecap="square" stroke-miterlimit="3"/><path d="M 256.86 32.145 L 256.86 32.145 C 258.039 32.145 258.997 33.409 258.997 34.965 L 258.997 40.562 C 258.997 42.118 258.039 43.382 256.86 43.382 L 256.86 43.382 C 255.68 43.382 254.723 42.118 254.723 40.562 L 254.723 34.965 C 254.723 33.409 255.68 32.145 256.86 32.145 Z" style="fill:none;stroke:#000000;stroke-width:1;stroke-linecap:square;stroke-miterlimit:2;"/><path d="M 260.932 32.145 L 260.932 32.145 C 262 32.145 262.867 33.294 262.867 34.709 L 262.867 39.84 C 262.867 41.255 262 42.404 260.932 42.404 L 260.932 42.404 C 259.864 42.404 258.997 41.255 258.997 39.84 L 258.997 34.709 C 258.997 33.294 259.864 32.145 260.932 32.145 Z" style="fill:none;stroke:#000000;stroke-width:1;stroke-linecap:square;stroke-miterlimit:2;"/><path d="M 252.788 32.145 L 252.788 32.145 C 253.856 32.145 254.723 33.294 254.723 34.709 L 254.723 39.84 C 254.723 41.255 253.856 42.404 252.788 42.404 L 252.788 42.404 C 251.72 42.404 250.853 41.255 250.853 39.84 L 250.853 34.709 C 250.853 33.294 251.72 32.145 252.788 32.145 Z" style="fill:none;stroke:#000000;stroke-width:1;stroke-linecap:square;stroke-miterlimit:2;"/><path d="M 264.635 32.145 L 264.635 32.145 C 265.611 32.145 266.404 33.157 266.404 34.404 L 266.404 38.599 C 266.404 39.846 265.611 40.859 264.635 40.859 L 264.635 40.859 C 263.659 40.859 262.867 39.846 262.867 38.599 L 262.867 34.404 C 262.867 33.157 263.659 32.145 264.635 32.145 Z" style="fill:none;stroke:#000000;stroke-width:1;stroke-linecap:square;stroke-miterlimit:2;"/><path d="M 248.998 32.365 L 248.998 32.365 C 249.974 32.365 250.767 33.378 250.767 34.625 L 250.767 38.82 C 250.767 40.067 249.974 41.079 248.998 41.079 L 248.998 41.079 C 248.022 41.079 247.23 40.067 247.23 38.82 L 247.23 34.625 C 247.23 33.378 248.022 32.365 248.998 32.365 Z" style="fill:none;stroke:#000000;stroke-width:1;stroke-linecap:square;stroke-miterlimit:2;"/><path d="M 267.975 32.918 L 267.975 32.918 C 268.842 32.918 269.546 33.764 269.546 34.807 L 269.546 37.885 C 269.546 38.927 268.842 39.774 267.975 39.774 L 267.975 39.774 C 267.108 39.774 266.404 38.927 266.404 37.885 L 266.404 34.807 C 266.404 33.764 267.108 32.918 267.975 32.918 Z" style="fill:none;stroke:#000000;stroke-width:1;stroke-linecap:square;stroke-miterlimit:2;"/><path d="M 245.659 33.294 L 245.659 33.294 C 246.526 33.294 247.23 34.141 247.23 35.183 L 247.23 38.261 C 247.23 39.304 246.526 40.15 245.659 40.15 L 245.659 40.15 C 244.792 40.15 244.088 39.304 244.088 38.261 L 244.088 35.183 C 244.088 34.141 244.792 33.294 245.659 33.294 Z" style="fill:none;stroke:#000000;stroke-width:1;stroke-linecap:square;stroke-miterlimit:2;"/><path d="M 270.614 34.8 L 270.614 34.8 C 271.203 34.8 271.682 35.449 271.682 36.248 L 271.682 39.279 C 271.682 40.078 271.203 40.727 270.614 40.727 L 270.614 40.727 C 270.024 40.727 269.546 40.078 269.546 39.279 L 269.546 36.248 C 269.546 35.449 270.024 34.8 270.614 34.8 Z" style="fill:none;stroke:#000000;stroke-width:1;stroke-linecap:square;stroke-miterlimit:2;"/><path d="M 243.295 35.018 L 243.295 35.018 C 243.732 35.018 244.088 35.519 244.088 36.136 L 244.088 38.656 C 244.088 39.273 243.732 39.774 243.295 39.774 L 243.295 39.774 C 242.857 39.774 242.502 39.273 242.502 38.656 L 242.502 36.136 C 242.502 35.519 242.857 35.018 243.295 35.018 Z" style="fill:none;stroke:#000000;stroke-width:1;stroke-linecap:square;stroke-miterlimit:2;"/><path d="M 256.86 32.927 L 256.86 32.927 C 258.039 32.927 258.997 34.091 258.997 35.524 L 258.997 39.857 C 258.997 41.291 258.039 42.454 256.86 42.454 L 256.86 42.454 C 255.68 42.454 254.723 41.291 254.723 39.857 L 254.723 35.524 C 254.723 34.091 255.68 32.927 256.86 32.927 Z" style="fill:none;stroke:#000000;stroke-width:1;stroke-linecap:square;stroke-miterlimit:2;"/><path d="M 260.932 32.927 L 260.932 32.927 C 262 32.927 262.867 33.985 262.867 35.289 L 262.867 39.264 C 262.867 40.567 262 41.625 260.932 41.625 L 260.932 41.625 C 259.864 41.625 258.997 40.567 258.997 39.264 L 258.997 35.289 C 258.997 33.985 259.864 32.927 260.932 32.927 Z" style="fill:none;stroke:#000000;stroke-width:1;stroke-linecap:square;stroke-miterlimit:2;"/><path d="M 252.788 32.927 L 252.788 32.927 C 253.856 32.927 254.723 33.985 254.723 35.289 L 254.723 39.264 C 254.723 40.567 253.856 41.625 252.788 41.625 L 252.788 41.625 C 251.72 41.625 250.853 40.567 250.853 39.264 L 250.853 35.289 C 250.853 33.985 251.72 32.927 252.788 32.927 Z" style="fill:none;stroke:#000000;stroke-width:1;stroke-linecap:square;stroke-miterlimit:2;"/><path d="M 264.635 32.927 L 264.635 32.927 C 265.611 32.927 266.404 33.86 266.404 35.008 L 266.404 38.235 C 266.404 39.383 265.611 40.315 264.635 40.315 L 264.635 40.315 C 263.659 40.315 262.867 39.383 262.867 38.235 L 262.867 35.008 C 262.867 33.86 263.659 32.927 264.635 32.927 Z" style="fill:none;stroke:#000000;stroke-width:1;stroke-linecap:square;stroke-miterlimit:2;"/><path d="M 248.998 33.114 L 248.998 33.114 C 249.974 33.114 250.767 34.046 250.767 35.194 L 250.767 38.421 C 250.767 39.569 249.974 40.502 248.998 40.502 L 248.998 40.502 C 248.022 40.502 247.23 39.569 247.23 38.421 L 247.23 35.194 C 247.23 34.046 248.022 33.114 248.998 33.114 Z" style="fill:none;stroke:#000000;stroke-width:1;stroke-linecap:square;stroke-miterlimit:2;"/><path d="M 267.975 33.583 L 267.975 33.583 C 268.842 33.583 269.546 34.362 269.546 35.322 L 269.546 37.656 C 269.546 38.616 268.842 39.395 267.975 39.395 L 267.975 39.395 C 267.108 39.395 266.404 38.616 266.404 37.656 L 266.404 35.322 C 266.404 34.362 267.108 33.583 267.975 33.583 Z" style="fill:none;stroke:#000000;stroke-width:1;stroke-linecap:square;stroke-miterlimit:2;"/><path d="M 245.659 33.902 L 245.659 33.902 C 246.526 33.902 247.23 34.681 247.23 35.641 L 247.23 37.975 C 247.23 38.935 246.526 39.714 245.659 39.714 L 245.659 39.714 C 244.792 39.714 244.088 38.935 244.088 37.975 L 244.088 35.641 C 244.088 34.681 244.792 33.902 245.659 33.902 Z" style="fill:none;stroke:#000000;stroke-width:1;stroke-linecap:square;stroke-miterlimit:2;"/><path d="M 270.614 35.178 L 270.614 35.178 C 271.203 35.178 271.682 35.776 271.682 36.512 L 271.682 38.87 C 271.682 39.606 271.203 40.203 270.614 40.203 L 270.614 40.203 C 270.024 40.203 269.546 39.606 269.546 38.87 L 269.546 36.512 C 269.546 35.776 270.024 35.178 270.614 35.178 Z" style="fill:none;stroke:#000000;stroke-width:1;stroke-linecap:square;stroke-miterlimit:2;"/><path d="M 243.295 35.363 L 243.295 35.363 C 243.732 35.363 244.088 35.825 244.088 36.393 L 244.088 38.366 C 244.088 38.934 243.732 39.395 243.295 39.395 L 243.295 39.395 C 242.857 39.395 242.502 38.934 242.502 38.366 L 242.502 36.393 C 242.502 35.825 242.857 35.363 243.295 35.363 Z" style="fill:none;stroke:#000000;stroke-width:1;stroke-linecap:square;stroke-miterlimit:2;"/><path d="M 256.104 85.741 L 256.589 85.741 C 257.581 85.741 258.386 86.546 258.386 87.538 L 258.386 88.725 C 258.386 89.717 257.581 90.523 256.589 90.523 L 256.104 90.523 C 255.112 90.523 254.307 89.717 254.307 88.725 L 254.307 87.538 C 254.307 86.546 255.112 85.741 256.104 85.741 Z" style="fill:none;stroke:#000000;stroke-width:1;stroke-linecap:square;stroke-miterlimit:2;"/><path d="M 260.021 85.741 L 260.446 85.741 C 261.348 85.741 262.081 86.473 262.081 87.375 L 262.081 88.472 C 262.081 89.374 261.348 90.107 260.446 90.107 L 260.021 90.107 C 259.119 90.107 258.386 89.374 258.386 88.472 L 258.386 87.375 C 258.386 86.473 259.119 85.741 260.021 85.741 Z" style="fill:none;stroke:#000000;stroke-width:1;stroke-linecap:square;stroke-miterlimit:2;"/><path d="M 252.247 85.741 L 252.672 85.741 C 253.574 85.741 254.307 86.473 254.307 87.375 L 254.307 88.472 C 254.307 89.374 253.574 90.107 252.672 90.107 L 252.247 90.107 C 251.345 90.107 250.612 89.374 250.612 88.472 L 250.612 87.375 C 250.612 86.473 251.345 85.741 252.247 85.741 Z" style="fill:none;stroke:#000000;stroke-width:1;stroke-linecap:square;stroke-miterlimit:2;"/><path d="M 263.521 85.741 L 264.017 85.741 C 264.812 85.741 265.457 86.386 265.457 87.181 L 265.457 88.009 C 265.457 88.804 264.812 89.449 264.017 89.449 L 263.521 89.449 C 262.726 89.449 262.081 88.804 262.081 88.009 L 262.081 87.181 C 262.081 86.386 262.726 85.741 263.521 85.741 Z" style="fill:none;stroke:#000000;stroke-width:1;stroke-linecap:square;stroke-miterlimit:2;"/><path d="M 248.594 85.834 L 249.09 85.834 C 249.885 85.834 250.53 86.48 250.53 87.274 L 250.53 88.103 C 250.53 88.897 249.885 89.543 249.09 89.543 L 248.594 89.543 C 247.799 89.543 247.154 88.897 247.154 88.103 L 247.154 87.274 C 247.154 86.48 247.799 85.834 248.594 85.834 Z" style="fill:none;stroke:#000000;stroke-width:1;stroke-linecap:square;stroke-miterlimit:2;"/><path d="M 266.661 86.069 L 267.252 86.069 C 267.917 86.069 268.456 86.609 268.456 87.273 L 268.456 87.783 C 268.456 88.448 267.917 88.987 267.252 88.987 L 266.661 88.987 C 265.996 88.987 265.457 88.448 265.457 87.783 L 265.457 87.273 C 265.457 86.609 265.996 86.069 266.661 86.069 Z" style="fill:none;stroke:#000000;stroke-width:1;stroke-linecap:square;stroke-miterlimit:2;"/><path d="M 245.358 86.23 L 245.95 86.23 C 246.614 86.23 247.154 86.769 247.154 87.434 L 247.154 87.943 C 247.154 88.608 246.614 89.147 245.95 89.147 L 245.358 89.147 C 244.694 89.147 244.155 88.608 244.155 87.943 L 244.155 87.434 C 244.155 86.769 244.694 86.23 245.358 86.23 Z" style="fill:none;stroke:#000000;stroke-width:1;stroke-linecap:square;stroke-miterlimit:2;"/><path d="M 269.379 86.871 L 269.572 86.871 C 270.081 86.871 270.495 87.284 270.495 87.793 L 270.495 88.47 C 270.495 88.979 270.081 89.393 269.572 89.393 L 269.379 89.393 C 268.87 89.393 268.456 88.979 268.456 88.47 L 268.456 87.793 C 268.456 87.284 268.87 86.871 269.379 86.871 Z" style="fill:none;stroke:#000000;stroke-width:1;stroke-linecap:square;stroke-miterlimit:2;"/><path d="M 243.353 86.963 L 243.442 86.963 C 243.835 86.963 244.155 87.283 244.155 87.676 L 244.155 88.275 C 244.155 88.668 243.835 88.987 243.442 88.987 L 243.353 88.987 C 242.96 88.987 242.641 88.668 242.641 88.275 L 242.641 87.676 C 242.641 87.283 242.96 86.963 243.353 86.963 Z" style="fill:none;stroke:#000000;stroke-width:1;stroke-linecap:square;stroke-miterlimit:2;"/><path d="M 255.962 86.074 L 256.731 86.074 C 257.645 86.074 258.386 86.815 258.386 87.729 L 258.386 88.473 C 258.386 89.386 257.645 90.128 256.731 90.128 L 255.962 90.128 C 255.048 90.128 254.307 89.386 254.307 88.473 L 254.307 87.729 C 254.307 86.815 255.048 86.074 255.962 86.074 Z" style="fill:none;stroke:#000000;stroke-width:1;stroke-linecap:square;stroke-miterlimit:2;"/><path d="M 259.891 86.074 L 260.576 86.074 C 261.406 86.074 262.081 86.748 262.081 87.579 L 262.081 88.27 C 262.081 89.101 261.406 89.775 260.576 89.775 L 259.891 89.775 C 259.061 89.775 258.386 89.101 258.386 88.27 L 258.386 87.579 C 258.386 86.748 259.061 86.074 259.891 86.074 Z" style="fill:none;stroke:#000000;stroke-width:1;stroke-linecap:square;stroke-miterlimit:2;"/><path d="M 252.117 86.074 L 252.802 86.074 C 253.632 86.074 254.307 86.748 254.307 87.579 L 254.307 88.27 C 254.307 89.101 253.632 89.775 252.802 89.775 L 252.117 89.775 C 251.287 89.775 250.612 89.101 250.612 88.27 L 250.612 87.579 C 250.612 86.748 251.287 86.074 252.117 86.074 Z" style="fill:none;stroke:#000000;stroke-width:1;stroke-linecap:square;stroke-miterlimit:2;"/><path d="M 263.406 86.074 L 264.131 86.074 C 264.863 86.074 265.457 86.668 265.457 87.4 L 265.457 87.892 C 265.457 88.623 264.863 89.217 264.131 89.217 L 263.406 89.217 C 262.675 89.217 262.081 88.623 262.081 87.892 L 262.081 87.4 C 262.081 86.668 262.675 86.074 263.406 86.074 Z" style="fill:none;stroke:#000000;stroke-width:1;stroke-linecap:square;stroke-miterlimit:2;"/><path d="M 248.48 86.153 L 249.204 86.153 C 249.936 86.153 250.53 86.747 250.53 87.479 L 250.53 87.971 C 250.53 88.703 249.936 89.297 249.204 89.297 L 248.48 89.297 C 247.748 89.297 247.154 88.703 247.154 87.971 L 247.154 87.479 C 247.154 86.747 247.748 86.153 248.48 86.153 Z" style="fill:none;stroke:#000000;stroke-width:1;stroke-linecap:square;stroke-miterlimit:2;"/><path d="M 266.565 86.352 L 267.348 86.352 C 267.959 86.352 268.456 86.849 268.456 87.461 L 268.456 87.717 C 268.456 88.329 267.959 88.826 267.348 88.826 L 266.565 88.826 C 265.953 88.826 265.457 88.329 265.457 87.717 L 265.457 87.461 C 265.457 86.849 265.953 86.352 266.565 86.352 Z" style="fill:none;stroke:#000000;stroke-width:1;stroke-linecap:square;stroke-miterlimit:2;"/><path d="M 245.263 86.488 L 246.045 86.488 C 246.657 86.488 247.154 86.985 247.154 87.597 L 247.154 87.853 C 247.154 88.465 246.657 88.962 246.045 88.962 L 245.263 88.962 C 244.651 88.962 244.155 88.465 244.155 87.853 L 244.155 87.597 C 244.155 86.985 244.651 86.488 245.263 86.488 Z" style="fill:none;stroke:#000000;stroke-width:1;stroke-linecap:square;stroke-miterlimit:2;"/><path d="M 269.306 87.032 L 269.645 87.032 C 270.114 87.032 270.495 87.412 270.495 87.881 L 270.495 88.32 C 270.495 88.789 270.114 89.17 269.645 89.17 L 269.306 89.17 C 268.837 89.17 268.456 88.789 268.456 88.32 L 268.456 87.881 C 268.456 87.412 268.837 87.032 269.306 87.032 Z" style="fill:none;stroke:#000000;stroke-width:1;stroke-linecap:square;stroke-miterlimit:2;"/><path d="M 243.296 87.11 L 243.499 87.11 C 243.861 87.11 244.155 87.404 244.155 87.766 L 244.155 88.17 C 244.155 88.532 243.861 88.826 243.499 88.826 L 243.296 88.826 C 242.934 88.826 242.641 88.532 242.641 88.17 L 242.641 87.766 C 242.641 87.404 242.934 87.11 243.296 87.11 Z" style="fill:none;stroke:#000000;stroke-width:1;stroke-linecap:square;stroke-miterlimit:2;"/><path d=" M 269.982 61.211 L 265.15 58.04 L 260.041 55.075 L 264.979 52.105 L 269.893 48.771 L 269.786 54.912 L 269.982 61.211 Z " fill="none" vector-effect="non-scaling-stroke" stroke-width="1" stroke="rgb(0,0,0)" stroke-linejoin="miter" stroke-linecap="square" stroke-miterlimit="3"/><path d=" M 269.982 61.211 L 265.969 58.04 L 261.727 55.075 L 265.828 52.105 L 269.908 48.771 L 269.819 54.912 L 269.982 61.211 Z " fill="none" vector-effect="non-scaling-stroke" stroke-width="1" stroke="rgb(0,0,0)" stroke-linejoin="miter" stroke-linecap="square" stroke-miterlimit="3"/><path d=" M 243.374 60.233 L 247.693 57.411 L 252.261 54.772 L 247.846 52.13 L 243.453 49.163 L 243.548 54.627 L 243.374 60.233 Z " fill="none" vector-effect="non-scaling-stroke" stroke-width="1" stroke="rgb(0,0,0)" stroke-linejoin="miter" stroke-linecap="square" stroke-miterlimit="3"/><path d=" M 243.374 60.233 L 246.961 57.411 L 250.753 54.772 L 247.087 52.13 L 243.44 49.163 L 243.519 54.627 L 243.374 60.233 Z " fill="none" vector-effect="non-scaling-stroke" stroke-width="1" stroke="rgb(0,0,0)" stroke-linejoin="miter" stroke-linecap="square" stroke-miterlimit="3"/></g></g></g><g><path d=" M 177.685 68.495 Q 168.336 69.332 165.82 67.207 Q 169.729 45.258 166.716 45.947 Q 164.871 44.901 163.552 47.289 C 162.234 49.677 163.299 66.246 161.075 66.692 C 158.85 67.137 150.033 67.02 150.001 65.489 C 149.97 63.959 150.477 39.052 152.302 38.914 C 154.126 38.776 158.69 38.079 159.42 39.687 Q 160.151 41.294 161.014 44.331 Q 162.787 37.936 173.887 38.575 C 184.988 39.213 187.034 67.658 177.685 68.495 Z " fill="none" vector-effect="non-scaling-stroke" stroke-width="1" stroke="rgb(0,0,0)" stroke-linejoin="miter" stroke-linecap="square" stroke-miterlimit="3"/><path d=" M 120.676 39.439 Q 129.909 37.595 132.596 39.439 Q 130.451 61.199 133.39 60.187 Q 135.463 61.538 136.569 59.019 C 137.675 56.499 135.188 40.123 137.364 39.439 C 139.539 38.755 148.326 37.919 148.489 39.439 C 148.652 40.958 150.293 65.804 148.489 66.139 C 146.684 66.473 142.203 67.66 141.337 66.139 Q 140.471 64.618 139.35 61.689 Q 138.137 68.245 127.033 68.809 C 115.929 69.373 111.443 41.282 120.676 39.439 Z " fill="none" vector-effect="non-scaling-stroke" stroke-width="1" stroke="rgb(0,0,0)" stroke-linejoin="miter" stroke-linecap="square" stroke-miterlimit="3"/><path d=" M 188.584 39.353 Q 197.817 37.51 200.504 39.353 Q 198.36 61.114 201.299 60.102 Q 203.371 61.452 204.477 58.933 C 205.584 56.414 203.096 40.037 205.272 39.353 C 207.448 38.669 216.234 37.833 216.397 39.353 C 216.56 40.873 218.202 65.719 216.397 66.053 C 214.593 66.388 210.111 67.574 209.245 66.053 Q 208.38 64.532 207.259 61.603 Q 206.045 68.159 194.941 68.723 C 183.838 69.287 179.351 41.197 188.584 39.353 Z " fill="none" vector-effect="non-scaling-stroke" stroke-width="1" stroke="rgb(0,0,0)" stroke-linejoin="miter" stroke-linecap="square" stroke-miterlimit="3"/><path d=" M 51.131 42.17 Q 60.364 40.326 63.051 42.17 Q 60.907 63.93 63.846 62.918 Q 65.918 64.269 67.024 61.75 C 68.131 59.23 65.643 42.853 67.819 42.17 C 69.995 41.486 78.781 40.65 78.944 42.17 C 79.107 43.689 80.748 68.535 78.944 68.87 C 77.14 69.204 72.658 70.391 71.792 68.87 Q 70.926 67.349 69.805 64.42 Q 68.592 70.976 57.488 71.54 C 46.385 72.104 41.898 44.013 51.131 42.17 Z " fill="none" vector-effect="non-scaling-stroke" stroke-width="1" stroke="rgb(0,0,0)" stroke-linejoin="miter" stroke-linecap="square" stroke-miterlimit="3"/><path d=" M 45.362 37.127 Q 34.903 31.356 25.099 41.577 C 15.294 51.797 22.37 64.69 23.907 66.942 C 25.443 69.194 35.081 75.289 46.157 70.502 L 46.157 55.372 Q 44.153 54.655 42.978 55.372 C 41.804 56.089 35.551 55.036 39.402 52.257 Q 43.254 49.478 45.362 50.922 L 45.362 37.127 Z " fill="none" vector-effect="non-scaling-stroke" stroke-width="1" stroke="rgb(0,0,0)" stroke-linejoin="miter" stroke-linecap="square" stroke-miterlimit="3"/><path d=" M 85.871 33.043 Q 98.243 29.99 97.394 33.933 L 97.394 46.393 Q 104.58 39.055 111.301 44.613 Q 118.021 50.17 114.479 61.078 Q 111.254 69.335 99.778 70.423 Q 88.302 71.51 86.269 64.638 Q 73.5 36.095 85.871 33.043 Z " fill="none" vector-effect="non-scaling-stroke" stroke-width="1" stroke="rgb(0,0,0)" stroke-linejoin="miter" stroke-linecap="square" stroke-miterlimit="3"/></g><line x1="217" y1="52" x2="212" y2="43" vector-effect="non-scaling-stroke" stroke-width="1" stroke="rgb(255,255,255)" stroke-linejoin="miter" stroke-linecap="square" stroke-miterlimit="3"/></g></svg>